<svg width="202" height="48" viewBox="0 0 202 48" fill="none" xmlns="http://www.w3.org/2000/svg">
<path d="M24.8884 0.75H177.664C190.575 0.75 201.035 11.1629 201.035 24C201.035 36.8371 190.575 47.25 177.664 47.25H24.8884C11.9772 47.25 1.51709 36.8371 1.51709 24C1.51709 11.1629 11.9772 0.75 24.8884 0.75Z" fill="url(#paint0_linear_531_400)" stroke="#EFEFEF" stroke-width="1.5"/>
<g filter="url(#filter0_d_531_400)">
<path d="M180.501 31.6453C180.759 32.3898 180.697 33.1826 180.354 33.872C180.107 34.3753 179.753 34.7648 179.321 35.1129C178.8 35.5266 178.151 35.8782 177.369 36.216C176.436 36.6158 175.297 36.9915 174.775 37.1294C173.441 37.4775 172.158 37.6982 170.857 37.7085C168.998 37.7257 167.396 37.2845 166.257 36.1574C165.667 36.2297 165.07 36.2711 164.469 36.2711C163.9 36.2711 163.337 36.2366 162.778 36.1677C161.636 37.288 160.04 37.7257 158.188 37.7085C156.887 37.6982 155.604 37.4775 154.266 37.1294C153.748 36.9915 152.609 36.6158 151.676 36.216C150.894 35.8782 150.246 35.5266 149.727 35.1129C149.292 34.7648 148.938 34.3753 148.691 33.872C148.352 33.1826 148.287 32.3898 148.547 31.6453C148.307 31.0765 148.245 30.4251 148.434 29.7046C148.52 29.3772 148.66 29.0739 148.839 28.805C148.801 28.6637 148.77 28.5189 148.75 28.3603C148.619 27.4159 148.945 26.5541 149.559 25.8854C149.861 25.5511 150.187 25.3201 150.527 25.1719C150.276 24.1033 150.146 23.0038 150.146 21.88C150.146 13.9314 156.558 7.48898 164.469 7.48898C167.187 7.48898 169.729 8.24731 171.897 9.57095C172.288 9.81224 172.672 10.0708 173.039 10.3465C173.221 10.4844 173.403 10.6257 173.578 10.7739C173.756 10.9187 173.931 11.0704 174.1 11.2255C174.607 11.6908 175.084 12.1906 175.52 12.7249C175.667 12.9007 175.808 13.0834 175.945 13.2695C176.223 13.6384 176.481 14.021 176.717 14.4174C177.077 15.0103 177.393 15.6307 177.668 16.2753C177.849 16.7062 178.007 17.1474 178.148 17.5989C178.357 18.2745 178.518 18.9708 178.628 19.6878C178.662 19.9256 178.693 20.1669 178.717 20.4082C178.765 20.8908 178.793 21.3802 178.793 21.88C178.793 22.99 178.662 24.0792 178.419 25.1305C178.796 25.2788 179.153 25.52 179.486 25.8854C180.1 26.5541 180.426 27.4193 180.296 28.3638C180.275 28.5189 180.244 28.6637 180.206 28.805C180.385 29.0739 180.525 29.3772 180.611 29.7046C180.8 30.4251 180.738 31.0765 180.501 31.6453Z" fill="white"/>
<path d="M164.362 33.8583C170.947 33.8583 176.284 28.4954 176.284 21.8801C176.284 15.2647 170.947 9.90188 164.362 9.90188C157.778 9.90188 152.44 15.2647 152.44 21.8801C152.44 28.4954 157.778 33.8583 164.362 33.8583Z" fill="#FFD21E"/>
<path d="M176.284 21.8801C176.284 15.2647 170.946 9.90191 164.362 9.90191C157.778 9.90191 152.44 15.2647 152.44 21.8801C152.44 28.4955 157.778 33.8583 164.362 33.8583C170.946 33.8583 176.284 28.4955 176.284 21.8801ZM151.068 21.8801C151.068 14.5032 157.02 8.52312 164.362 8.52312C171.704 8.52312 177.656 14.5032 177.656 21.8801C177.656 29.257 171.704 35.2371 164.362 35.2371C157.02 35.2371 151.068 29.257 151.068 21.8801Z" fill="#FF9D00"/>
<path d="M168.236 18.6197C168.673 18.7748 168.847 19.6779 169.289 19.442C170.125 18.9951 170.443 17.9515 169.998 17.1111C169.553 16.2707 168.515 15.9516 167.678 16.3985C166.842 16.8453 166.524 17.8889 166.969 18.7293C167.179 19.126 167.845 18.481 168.236 18.6197Z" fill="#32343D"/>
<path d="M160.153 18.6197C159.716 18.7748 159.542 19.6779 159.1 19.442C158.264 18.9951 157.946 17.9515 158.391 17.1111C158.836 16.2707 159.875 15.9516 160.711 16.3985C161.547 16.8453 161.865 17.8889 161.42 18.7293C161.21 19.126 160.544 18.481 160.153 18.6197Z" fill="#32343D"/>
<path d="M164.276 26.8916C167.648 26.8916 168.736 23.871 168.736 22.3199C168.736 21.5138 168.197 21.7675 167.333 22.1972C166.535 22.5943 165.459 23.1417 164.276 23.1417C161.813 23.1417 159.816 20.7688 159.816 22.3199C159.816 23.871 160.904 26.8916 164.276 26.8916Z" fill="#32343D"/>
<mask id="mask0_531_400" style="mask-type:alpha" maskUnits="userSpaceOnUse" x="159" y="21" width="10" height="6">
<path d="M164.276 26.8916C167.648 26.8916 168.736 23.871 168.736 22.3199C168.736 21.5138 168.197 21.7675 167.333 22.1972C166.535 22.5943 165.459 23.1417 164.276 23.1417C161.813 23.1417 159.816 20.7688 159.816 22.3199C159.816 23.871 160.904 26.8916 164.276 26.8916Z" fill="white"/>
</mask>
<g mask="url(#mask0_531_400)">
<path d="M164.361 30.4112C166.005 30.4112 167.337 29.0728 167.337 27.4217C167.337 26.1357 166.529 25.0393 165.395 24.6174C165.353 24.6018 165.311 24.5872 165.268 24.5736C164.982 24.4817 164.677 25.4691 164.361 25.4691C164.066 25.4691 163.78 24.4754 163.511 24.556C162.282 24.9236 161.386 26.0675 161.386 27.4217C161.386 29.0728 162.718 30.4112 164.361 30.4112Z" fill="#FF323D"/>
</g>
<g style="mix-blend-mode:multiply">
<path d="M172.424 20.2428C173.04 20.2428 173.539 19.7412 173.539 19.1225C173.539 18.5038 173.04 18.0023 172.424 18.0023C171.808 18.0023 171.309 18.5038 171.309 19.1225C171.309 19.7412 171.808 20.2428 172.424 20.2428Z" fill="#FFD21E"/>
</g>
<g style="mix-blend-mode:multiply">
<path d="M156.47 20.2428C157.086 20.2428 157.585 19.7412 157.585 19.1225C157.585 18.5038 157.086 18.0023 156.47 18.0023C155.855 18.0023 155.355 18.5038 155.355 19.1225C155.355 19.7412 155.855 20.2428 156.47 20.2428Z" fill="#FFD21E"/>
</g>
<path d="M154.176 24.0345C153.62 24.0345 153.124 24.2637 152.778 24.6794C152.564 24.9369 152.34 25.3519 152.322 25.9734C152.089 25.9062 151.865 25.8686 151.656 25.8686C151.124 25.8686 150.644 26.0733 150.304 26.4453C149.868 26.9227 149.674 27.5093 149.758 28.0964C149.798 28.3759 149.891 28.6265 150.03 28.8585C149.737 29.0967 149.521 29.4283 149.417 29.8271C149.335 30.1397 149.252 30.7908 149.689 31.4616C149.661 31.5054 149.635 31.5509 149.611 31.5974C149.348 32.0986 149.331 32.665 149.563 33.1923C149.915 33.9917 150.788 34.6215 152.485 35.2974C153.541 35.7179 154.507 35.9868 154.515 35.9892C155.911 36.3529 157.173 36.5376 158.266 36.5376C160.274 36.5376 161.712 35.9196 162.539 34.7007C163.871 32.738 163.681 30.9429 161.958 29.2125C161.004 28.2549 160.37 26.843 160.238 26.5332C159.971 25.6156 159.267 24.5956 158.097 24.5956H158.097C157.998 24.5956 157.899 24.6035 157.801 24.6191C157.288 24.7001 156.84 24.9965 156.52 25.4425C156.175 25.011 155.839 24.6677 155.535 24.4739C155.078 24.1823 154.621 24.0345 154.176 24.0345ZM154.176 25.4132C154.351 25.4132 154.565 25.488 154.8 25.6383C155.532 26.1047 156.944 28.5434 157.461 29.492C157.634 29.8098 157.93 29.9443 158.197 29.9443C158.726 29.9443 159.139 29.4159 158.245 28.7444C156.902 27.7341 157.373 26.0826 158.015 25.981C158.043 25.9765 158.07 25.9744 158.097 25.9744C158.68 25.9744 158.938 26.9844 158.938 26.9844C158.938 26.9844 159.692 28.8871 160.987 30.1876C162.283 31.4885 162.35 32.5326 161.406 33.9238C160.762 34.8724 159.529 35.1588 158.266 35.1588C156.955 35.1588 155.612 34.8507 154.86 34.6545C154.823 34.6449 150.245 33.3457 150.825 32.2399C150.922 32.0542 151.083 31.9797 151.285 31.9797C152.101 31.9797 153.586 33.2006 154.225 33.2006C154.368 33.2006 154.468 33.1396 154.509 32.9907C154.781 32.01 150.373 31.5978 150.744 30.1773C150.81 29.926 150.988 29.824 151.237 29.8243C152.316 29.8243 154.737 31.7308 155.245 31.7308C155.283 31.7308 155.311 31.7195 155.326 31.6953C155.58 31.2831 155.441 30.9952 153.649 29.9057C151.857 28.8157 150.6 28.1601 151.315 27.3777C151.397 27.2874 151.514 27.2474 151.656 27.2474C152.744 27.2477 155.314 29.5978 155.314 29.5978C155.314 29.5978 156.008 30.3227 156.427 30.3227C156.524 30.3227 156.606 30.2845 156.661 30.19C156.959 29.6861 153.898 27.3559 153.726 26.3946C153.609 25.7431 153.808 25.4132 154.176 25.4132Z" fill="#FF9D00"/>
<path d="M161.405 33.9238C162.349 32.5326 162.282 31.4885 160.987 30.1876C159.691 28.8871 158.937 26.9843 158.937 26.9843C158.937 26.9843 158.656 25.8792 158.014 25.9809C157.372 26.0826 156.901 27.734 158.245 28.7444C159.589 29.7543 157.978 30.4406 157.461 29.492C156.944 28.5434 155.532 26.1047 154.8 25.6383C154.068 25.1719 153.553 25.4332 153.725 26.3946C153.898 27.3559 156.958 29.6861 156.661 30.1904C156.363 30.6943 155.313 29.5978 155.313 29.5978C155.313 29.5978 152.029 26.5952 151.314 27.3776C150.599 28.1601 151.857 28.8157 153.649 29.9056C155.441 30.9952 155.58 31.283 155.326 31.6953C155.071 32.1076 151.115 28.7568 150.744 30.1773C150.373 31.5977 154.781 32.01 154.509 32.9907C154.237 33.9717 151.404 31.1345 150.824 32.2399C150.244 33.3457 154.822 34.6449 154.859 34.6545C156.338 35.0399 160.093 35.8565 161.405 33.9238Z" fill="#FFD21E"/>
<path d="M174.72 24.0345C175.275 24.0345 175.772 24.2637 176.118 24.6794C176.332 24.9369 176.555 25.3519 176.574 25.9734C176.807 25.9062 177.031 25.8686 177.24 25.8686C177.772 25.8686 178.252 26.0733 178.592 26.4453C179.028 26.9227 179.222 27.5093 179.137 28.0964C179.097 28.3759 179.004 28.6265 178.865 28.8585C179.158 29.0967 179.374 29.4283 179.478 29.8271C179.56 30.1397 179.644 30.7908 179.207 31.4616C179.235 31.5054 179.261 31.5509 179.285 31.5974C179.548 32.0986 179.565 32.665 179.333 33.1923C178.981 33.9917 178.107 34.6215 176.41 35.2974C175.355 35.7179 174.389 35.9868 174.38 35.9892C172.985 36.3529 171.723 36.5376 170.63 36.5376C168.621 36.5376 167.184 35.9196 166.356 34.7007C165.024 32.738 165.215 30.9429 166.938 29.2125C167.892 28.2549 168.526 26.843 168.658 26.5332C168.924 25.6156 169.628 24.5956 170.798 24.5956H170.799C170.897 24.5956 170.997 24.6035 171.095 24.6191C171.607 24.7001 172.055 24.9965 172.375 25.4425C172.721 25.011 173.056 24.6677 173.36 24.4739C173.818 24.1823 174.275 24.0345 174.72 24.0345ZM174.72 25.4132C174.545 25.4132 174.331 25.488 174.095 25.6383C173.363 26.1047 171.951 28.5434 171.434 29.492C171.261 29.8098 170.965 29.9443 170.698 29.9443C170.169 29.9443 169.756 29.4159 170.65 28.7444C171.994 27.7341 171.523 26.0826 170.881 25.981C170.853 25.9765 170.825 25.9744 170.798 25.9744C170.215 25.9744 169.958 26.9844 169.958 26.9844C169.958 26.9844 169.204 28.8871 167.908 30.1876C166.613 31.4885 166.546 32.5326 167.49 33.9238C168.134 34.8724 169.367 35.1588 170.63 35.1588C171.94 35.1588 173.283 34.8507 174.036 34.6545C174.073 34.6449 178.651 33.3457 178.071 32.2399C177.973 32.0542 177.813 31.9797 177.611 31.9797C176.794 31.9797 175.309 33.2006 174.671 33.2006C174.528 33.2006 174.427 33.1396 174.386 32.9907C174.114 32.01 178.523 31.5978 178.151 30.1773C178.086 29.926 177.908 29.824 177.658 29.8243C176.579 29.8243 174.158 31.7308 173.651 31.7308C173.612 31.7308 173.584 31.7195 173.569 31.6953C173.315 31.2831 173.454 30.9952 175.246 29.9057C177.038 28.8157 178.296 28.1601 177.581 27.3777C177.498 27.2874 177.382 27.2474 177.24 27.2474C176.152 27.2477 173.582 29.5978 173.582 29.5978C173.582 29.5978 172.888 30.3227 172.468 30.3227C172.372 30.3227 172.29 30.2845 172.234 30.19C171.937 29.6861 174.997 27.3559 175.17 26.3946C175.287 25.7431 175.088 25.4132 174.72 25.4132Z" fill="#FF9D00"/>
<path d="M167.489 33.9238C166.545 32.5326 166.612 31.4885 167.907 30.1876C169.203 28.8871 169.957 26.9843 169.957 26.9843C169.957 26.9843 170.238 25.8792 170.88 25.9809C171.522 26.0826 171.993 27.734 170.649 28.7444C169.305 29.7543 170.916 30.4406 171.433 29.492C171.95 28.5434 173.362 26.1047 174.094 25.6383C174.826 25.1719 175.341 25.4332 175.169 26.3946C174.996 27.3559 171.936 29.6861 172.233 30.1904C172.531 30.6943 173.581 29.5978 173.581 29.5978C173.581 29.5978 176.865 26.5952 177.58 27.3776C178.295 28.1601 177.037 28.8157 175.245 29.9056C173.453 30.9952 173.314 31.283 173.568 31.6953C173.823 32.1076 177.779 28.7568 178.15 30.1773C178.521 31.5977 174.113 32.01 174.385 32.9907C174.657 33.9717 177.49 31.1345 178.07 32.2399C178.65 33.3457 174.072 34.6449 174.035 34.6545C172.556 35.0399 168.801 35.8565 167.489 33.9238Z" fill="#FFD21E"/>
</g>
<path d="M27.9238 30.099V16.6825H36.027V18.6929H30.3035V22.4881H35.186V24.4985H30.3035V30.099H27.9238ZM41.9791 30.3452C41.1449 30.3452 40.3653 30.14 39.6405 29.7297C38.9156 29.3058 38.3275 28.704 37.8762 27.9245C37.4249 27.1312 37.1993 26.1807 37.1993 25.0729C37.1993 23.9515 37.4249 23.001 37.8762 22.2214C38.3275 21.4282 38.9156 20.8264 39.6405 20.4162C40.3653 19.9922 41.1449 19.7802 41.9791 19.7802C42.8271 19.7802 43.6134 19.9922 44.3383 20.4162C45.0631 20.8264 45.6512 21.4282 46.1025 22.2214C46.5538 23.001 46.7795 23.9515 46.7795 25.0729C46.7795 26.1807 46.5538 27.1312 46.1025 27.9245C45.6512 28.704 45.0631 29.3058 44.3383 29.7297C43.6134 30.14 42.8271 30.3452 41.9791 30.3452ZM41.9791 28.4168C42.7176 28.4168 43.2989 28.1091 43.7229 27.4936C44.1468 26.8782 44.3588 26.0713 44.3588 25.0729C44.3588 24.0609 44.1468 23.2472 43.7229 22.6317C43.2989 22.0163 42.7176 21.7086 41.9791 21.7086C41.2406 21.7086 40.6594 22.0163 40.2354 22.6317C39.8251 23.2472 39.62 24.0609 39.62 25.0729C39.62 26.0713 39.8251 26.8782 40.2354 27.4936C40.6594 28.1091 41.2406 28.4168 41.9791 28.4168ZM51.4122 30.3452C50.578 30.3452 49.9831 30.0921 49.6275 29.5861C49.2856 29.0801 49.1146 28.3894 49.1146 27.5142V15.6158H51.4738V27.6372C51.4738 27.9245 51.5285 28.1296 51.6379 28.2527C51.7473 28.3621 51.8636 28.4168 51.9867 28.4168C52.0414 28.4168 52.0892 28.4168 52.1303 28.4168C52.185 28.4031 52.2602 28.3894 52.3559 28.3758L52.6636 30.14C52.5269 30.1947 52.3491 30.2426 52.1303 30.2836C51.9251 30.3246 51.6858 30.3452 51.4122 30.3452ZM56.9816 30.3452C56.1473 30.3452 55.5524 30.0921 55.1968 29.5861C54.8549 29.0801 54.684 28.3894 54.684 27.5142V15.6158H57.0431V27.6372C57.0431 27.9245 57.0978 28.1296 57.2073 28.2527C57.3167 28.3621 57.4329 28.4168 57.556 28.4168C57.6107 28.4168 57.6586 28.4168 57.6996 28.4168C57.7543 28.4031 57.8295 28.3894 57.9253 28.3758L58.233 30.14C58.0962 30.1947 57.9184 30.2426 57.6996 30.2836C57.4945 30.3246 57.2551 30.3452 56.9816 30.3452ZM64.3767 30.3452C63.5425 30.3452 62.7629 30.14 62.0381 29.7297C61.3132 29.3058 60.7252 28.704 60.2738 27.9245C59.8225 27.1312 59.5969 26.1807 59.5969 25.0729C59.5969 23.9515 59.8225 23.001 60.2738 22.2214C60.7252 21.4282 61.3132 20.8264 62.0381 20.4162C62.7629 19.9922 63.5425 19.7802 64.3767 19.7802C65.2247 19.7802 66.0111 19.9922 66.7359 20.4162C67.4607 20.8264 68.0488 21.4282 68.5001 22.2214C68.9515 23.001 69.1771 23.9515 69.1771 25.0729C69.1771 26.1807 68.9515 27.1312 68.5001 27.9245C68.0488 28.704 67.4607 29.3058 66.7359 29.7297C66.0111 30.14 65.2247 30.3452 64.3767 30.3452ZM64.3767 28.4168C65.1153 28.4168 65.6965 28.1091 66.1205 27.4936C66.5444 26.8782 66.7564 26.0713 66.7564 25.0729C66.7564 24.0609 66.5444 23.2472 66.1205 22.6317C65.6965 22.0163 65.1153 21.7086 64.3767 21.7086C63.6382 21.7086 63.057 22.0163 62.633 22.6317C62.2227 23.2472 62.0176 24.0609 62.0176 25.0729C62.0176 26.0713 62.2227 26.8782 62.633 27.4936C63.057 28.1091 63.6382 28.4168 64.3767 28.4168ZM73.0537 30.099L70.3868 20.0264H72.7665L73.9769 25.2576C74.0863 25.7362 74.1752 26.2149 74.2436 26.6936C74.3256 27.1723 74.4145 27.6578 74.5102 28.1501H74.5923C74.688 27.6578 74.7838 27.1723 74.8795 26.6936C74.9889 26.2012 75.1052 25.7226 75.2282 25.2576L76.5412 20.0264H78.6952L80.0286 25.2576C80.1517 25.7362 80.268 26.2149 80.3774 26.6936C80.4868 27.1723 80.5962 27.6578 80.7056 28.1501H80.7877C80.8834 27.6578 80.9723 27.1723 81.0544 26.6936C81.1364 26.2149 81.2253 25.7362 81.321 25.2576L82.5314 20.0264H84.747L82.1827 30.099H79.3722L78.2028 25.4012C78.0934 24.9225 77.9909 24.4507 77.8951 23.9857C77.7994 23.507 77.6968 23.001 77.5874 22.4676H77.5054C77.4096 23.001 77.3139 23.507 77.2182 23.9857C77.1224 24.4643 77.0198 24.943 76.9104 25.4217L75.7616 30.099H73.0537ZM90.8447 30.099V20.0264H92.7936L92.9577 21.4009H93.0398C93.4637 20.9495 93.9219 20.5666 94.4142 20.252C94.9203 19.9375 95.4878 19.7802 96.1169 19.7802C96.8555 19.7802 97.4435 19.9443 97.8812 20.2726C98.3325 20.5871 98.6744 21.0248 98.9069 21.5855C99.3856 21.0658 99.8848 20.635 100.404 20.2931C100.938 19.9512 101.519 19.7802 102.148 19.7802C103.215 19.7802 104.001 20.129 104.507 20.8264C105.013 21.5239 105.266 22.5086 105.266 23.7805V30.099H102.887V24.0882C102.887 23.254 102.757 22.6659 102.497 22.324C102.251 21.9821 101.868 21.8111 101.348 21.8111C100.719 21.8111 100.015 22.2283 99.2351 23.0625V30.099H96.876V24.0882C96.876 23.254 96.746 22.6659 96.4862 22.324C96.24 21.9821 95.8502 21.8111 95.3169 21.8111C94.6878 21.8111 93.9834 22.2283 93.2039 23.0625V30.099H90.8447ZM112.442 30.3452C111.512 30.3452 110.671 30.14 109.919 29.7297C109.166 29.3058 108.571 28.704 108.134 27.9245C107.696 27.1312 107.477 26.1807 107.477 25.0729C107.477 23.9788 107.696 23.0352 108.134 22.2419C108.585 21.4487 109.166 20.8401 109.877 20.4162C110.589 19.9922 111.334 19.7802 112.114 19.7802C113.03 19.7802 113.796 19.9854 114.411 20.3956C115.027 20.7923 115.492 21.353 115.806 22.0778C116.121 22.789 116.278 23.6164 116.278 24.5601C116.278 25.0524 116.244 25.4354 116.175 25.7089H109.775C109.884 26.5978 110.206 27.2885 110.739 27.7808C111.272 28.2732 111.943 28.5194 112.75 28.5194C113.187 28.5194 113.591 28.4578 113.96 28.3347C114.343 28.198 114.719 28.0133 115.088 27.7808L115.888 29.2579C115.41 29.5724 114.876 29.8323 114.288 30.0374C113.7 30.2426 113.085 30.3452 112.442 30.3452ZM109.754 24.1088H114.227C114.227 23.3292 114.056 22.7206 113.714 22.283C113.372 21.8317 112.859 21.606 112.175 21.606C111.587 21.606 111.06 21.8248 110.595 22.2625C110.144 22.6864 109.864 23.3019 109.754 24.1088ZM126.7 30.3452C124.259 30.3452 122.084 28.4373 122.084 25.1345C122.084 21.7906 124.259 19.8828 126.7 19.8828C129.141 19.8828 131.316 21.7906 131.316 25.1345C131.316 28.4373 129.141 30.3452 126.7 30.3452ZM126.7 28.9502C128.423 28.9502 129.572 27.4116 129.572 25.1345C129.572 22.8369 128.423 21.2778 126.7 21.2778C124.997 21.2778 123.828 22.8369 123.828 25.1345C123.828 27.4116 124.997 28.9502 126.7 28.9502ZM133.941 30.099V20.129H135.336L135.48 21.565H135.542C136.485 20.6213 137.511 19.8828 138.885 19.8828C140.978 19.8828 141.922 21.2367 141.922 23.7805V30.099H140.239V24.0062C140.239 22.1394 139.665 21.3393 138.352 21.3393C137.326 21.3393 136.629 21.8727 135.624 22.8779V30.099H133.941Z" fill="#2C3236"/>
<defs>
<filter id="filter0_d_531_400" x="141.416" y="2.17576" width="46.2133" height="44.0344" filterUnits="userSpaceOnUse" color-interpolation-filters="sRGB">
<feFlood flood-opacity="0" result="BackgroundImageFix"/>
<feColorMatrix in="SourceAlpha" type="matrix" values="0 0 0 0 0 0 0 0 0 0 0 0 0 0 0 0 0 0 127 0" result="hardAlpha"/>
<feOffset dy="1.59397"/>
<feGaussianBlur stdDeviation="3.4536"/>
<feColorMatrix type="matrix" values="0 0 0 0 0 0 0 0 0 0 0 0 0 0 0 0 0 0 0.1 0"/>
<feBlend mode="normal" in2="BackgroundImageFix" result="effect1_dropShadow_531_400"/>
<feBlend mode="normal" in="SourceGraphic" in2="effect1_dropShadow_531_400" result="shape"/>
</filter>
<linearGradient id="paint0_linear_531_400" x1="0.76709" y1="24" x2="92.218" y2="24" gradientUnits="userSpaceOnUse">
<stop stop-color="#F5F9FA"/>
<stop offset="1" stop-color="white"/>
</linearGradient>
</defs>
</svg>
